<?xml version="1.0" encoding="utf-8"?>
<!-- Generator: Adobe Illustrator 27.5.0, SVG Export Plug-In . SVG Version: 6.00 Build 0)  -->
<svg version="1.1" xmlns="http://www.w3.org/2000/svg" xmlns:xlink="http://www.w3.org/1999/xlink" x="0px" y="0px"
	 viewBox="0 0 1700 2400" style="enable-background:new 0 0 1700 2400;" xml:space="preserve">
<g id="BACKGROUND">
	<rect style="fill:#533393;" width="1700" height="2400"/>
</g>
<g id="OBJECTS">
	<g>
		<path style="fill:#6e43c4;" d="M1554.208,1193.237c-46.023-10.105-93-15.031-138.434-28.401
			c-13.972-4.111-27.499-9.466-40.599-16.108c-42.055-21.323-62.336-57.074-62.635-106.022
			c-0.289-47.184,10.554-92.399,22.268-137.39c18.806-72.228,43.739-142.433,63.37-214.389
			c10.755-39.423,20.716-79.068,23.235-120.292c0.74-12.119,0.567-24.23-2.317-36.089c-4.697-19.312-17.031-27.948-35.562-24.222
			c-26.705,5.37-48.811,21.033-70.369,37.265c-64.952,48.906-122.329,107.167-179.363,165.686
			c-126.714,130.013-254.821,258.441-384.974,384.58c-63.317,61.365-125.787,123.742-192.157,181.458
			c-41.61,36.184-84.636,70.26-133.805,94.416c-23.115,11.356-47.01,19.974-72.899,20.412c-39.232,0.663-67.255-19.273-81.02-58.235
			c-11.177-31.636-11.984-64.676-10.551-97.869c2.462-57.014,11.42-113.26,18.237-169.757
			c7.876-65.277,17.657-130.304,19.883-196.266c2.711-80.379-17.534-153.415-59.902-219.855
			c-41.138-64.511-91.197-120.661-144.956-173.258C61.451,449.346,30.606,420.52,0,391.422v53.568
			c65.531,61.897,131.245,123.573,183.439,199.352c34.087,49.49,63.059,101.497,74.907,162.427
			c4.674,24.035,7.707,48.277,7.194,72.898c-0.027,1.313-0.198,2.622-0.302,3.933c-0.234-1.105-0.577-2.199-0.685-3.318
			c-8.521-88.358-44.263-163.875-98.866-229.604c-49.44-59.513-104.84-112.439-165.566-158.92c-0.041-0.031-0.08-0.067-0.121-0.099
			v59.013c70.108,56.719,132.666,121.121,177.583,202.556c40.946,74.236,53.616,154.637,44.157,239.821
			c-10.269,92.482-29.749,183.094-47.007,274.185c-7.581,40.016-13.294,80.363-7.889,121.358
			c11.451,86.849,77.588,140.01,160.411,130.045c55.903-6.726,105.093-31.439,152.151-61.96
			c67.325-43.665,126.784-98.117,184.905-154.188c106.922-103.15,211.881-208.611,322.255-307.689
			c48.444-43.487,96.407-87.694,150.496-123.451c13.257-8.764,27.024-16.643,42.505-20.131c19.744-4.449,31.441,3.932,34.327,25.103
			c3.665,26.891-2.27,52.905-7.798,78.816c-11.235,52.657-26.374,104.387-33.542,158.007c-3.848,28.784-5.838,57.602,2.211,86.044
			c9.177,32.429,31.537,52.068,58.748,66.463c36.531,19.324,76.185,27.728,115.84,35.873c41.758,8.576,84.059,14.624,124.278,30.257
			c21.843,8.49,42.222,19.694,59.679,36.362c24.268,23.171,32.848,51.958,27.128,85.63c-6.68,39.323-25.393,72.895-46.382,105.1
			c-41.322,63.403-90.824,119.539-140.546,175.389c-43.214,48.54-87.093,96.414-130.677,144.583
			c-0.771,0.852-1.445,1.84-2.326,2.535c-1.437,1.134-2.87,4.407-4.222,3.029c-1.656-1.688,1.308-3.255,2.448-4.6
			c19.186-22.62,38.618-45.008,57.662-67.761c58.065-69.372,116.297-138.631,166.025-215.208
			c22.168-34.137,42.228-69.584,52.909-109.981c15.911-60.179-3.112-104.286-56.584-130.674
			c-32.882-16.227-68.324-22.784-103.612-29.746c-46.529-9.18-93.317-17.432-137.04-37.829
			c-31.872-14.869-59.753-34.726-72.019-71.763c-9.161-27.659-8.79-56.31-6.786-85.011c2.862-40.984,10.45-81.322,15.066-122.066
			c1.894-16.719,3.579-33.492,1.243-50.332c-3.529-25.449-16.735-34.886-40.072-27.812c-26.397,8.002-48.908,24.104-70.841,40.806
			c-85.217,64.896-163.257,138.991-241.476,212.832c-77.167,72.848-151.502,149.126-232.928,216.813
			c-56.284,46.787-115.201,89.05-183.217,114.809c-43.858,16.61-88.654,23.553-134.504,10.691
			c-64.518-18.099-109.476-76.036-117.195-148.898c-5.139-48.509,1.72-96.06,9.237-143.535
			c12.171-76.867,24.249-153.732,27.697-231.748c4.483-101.465-24.286-192.404-77.087-276.093
			C67.827,683.895,37.775,643.204,0,609.43v64.903c91.164,96.718,147.47,210.007,144.98,350.562
			c-1.075,60.701-11.726,120.27-22.065,179.791c-8.216,47.3-17.571,94.423-17.769,142.859
			c-0.204,50.026,9.916,96.953,39.001,137.311c43.878,60.885,103.43,84.522,174.12,77.777c63.961-6.103,120.23-35.16,174.193-69.743
			c69.646-44.634,131.657-99.974,192.919-156.285c69.223-63.629,136.802-129.308,208.969-189.269
			c35.504-29.499,71.209-58.807,112.776-78.57c9.184-4.366,18.688-7.778,28.833-8.484c15.555-1.084,25.271,5.267,31.533,20.636
			c5.397,13.245,6.544,27.409,7.473,41.561c2.165,32.968,1.563,66.064,5.701,98.973c6.852,54.486,38.312,86.907,83.013,108.752
			c41.271,20.168,85.148,31.028,128.978,42.25c29.74,7.615,59.455,15.398,86.72,30.846c45.217,25.621,62.043,65.635,49.553,118.45
			c-8.519,36.024-25.493,67.936-44.297,98.754c-48.859,80.075-106.688,152.757-165.695,224.431
			c-104.325,126.719-215.302,246.512-331.329,361.247c-60.458,59.785-113.534,127.081-167.027,193.82h52.279
			c62.499-72.351,129.297-139.967,198.971-204.544c77.459-71.792,149.159-149.926,220.469-228.45
			c72.068-79.358,144.673-158.169,216.543-237.727c53.764-59.515,107.014-119.602,151.106-187.875
			c20.532-31.792,38.659-64.971,47.567-102.82c11.925-50.669-1.857-90.226-41.728-120.926
			c-32.289-24.861-69.503-36.461-107.787-45.253c-43.767-10.051-88.237-16.913-130.816-32.366
			c-23.061-8.369-45.06-18.903-63.805-35.842c-30.117-27.214-36.483-63.499-34.015-102.739
			c3.529-56.126,19.15-109.497,33.896-163.048c14.424-52.379,30.81-104.234,38.188-158.519c1.713-12.604,2.441-25.265,0.987-37.965
			c-3.017-26.358-16.624-36.119-40.681-28.989c-18.506,5.485-34.553,16.198-50.126,27.637
			c-48.896,35.915-92.779,78.31-136.962,120.25c-105.631,100.268-210.899,200.963-314.768,303.291
			c-57.131,56.283-113.751,113.181-173.451,166.448c-53.793,47.996-109.322,93.376-174.408,123.414
			c-32.999,15.229-67.105,25.831-103.675,21.62c-56.383-6.493-92.565-44.028-101.121-103.71c-6.22-43.388-0.495-86.068,7.189-128.44
			c10.974-60.512,23.099-120.79,34.749-181.164c0.296-1.532,0.786-3.022,1.185-4.532c-0.028,1.769,0.114,3.562-0.109,5.302
			c-6.241,48.833-12.533,97.657-18.785,146.488c-6.083,47.509-11.233,95.037-0.776,142.638
			c11.814,53.778,41.943,83.942,89.235,88.634c25.456,2.526,49.891-3.336,73.542-12.809c51.655-20.689,96.556-53.433,139.598-89.247
			c69.334-57.692,132.924-122.297,197.596-185.581c99.892-97.749,199.66-195.641,299.374-293.594
			c56.186-55.194,111.02-111.96,169.376-164.625c34.128-30.8,68.44-61.512,109.5-81.953c5.007-2.493,10.314-4.511,15.67-5.974
			c22.419-6.122,35.702,2.899,39.705,26.987c3.54,21.304,0.843,42.431-2.714,63.385c-10.383,61.171-29.89,119.707-46.543,179.058
			c-14.838,52.883-30.497,105.555-36.927,160.577c-3.594,30.758-4.313,61.474,8.701,90.378
			c15.901,35.317,45.968,51.758,78.622,63.937c41.488,15.475,85.041,21.066,128.145,28.623
			c46.629,8.175,92.318,19.382,133.708,44.941c60.517,37.37,81.204,91.92,61.564,163.123
			c-14.717,53.351-43.029,98.931-74.234,142.638c-49.92,69.918-107.977,132.082-166.553,193.621
			c-107.448,112.884-213.983,226.761-323.573,337.336c-66.056,66.65-137.108,127.111-207.601,188.281
			c-39.877,34.603-77.57,71.816-114.329,110.083h40.918c43.407-43.886,89.255-84.792,135.927-124.709
			c79.184-67.722,154.527-140.026,226.146-216.58c119.614-127.856,242.239-252.543,359.429-382.94
			c49.811-55.424,96.551-113.595,132.759-180.367c0.787-1.451,1.524-2.931,2.264-4.41v-231.889
			C1658.294,1220.435,1607.013,1204.831,1554.208,1193.237z M1231.417,1892.714c-0.644,0.301-1.486,0.374-2.032,0.839
			c-1.656,1.409-3.198,2.97-4.785,4.471c-0.015-0.472-0.183-1.284-0.022-1.365c2.354-1.186,2.285-7.367,6.845-3.997
			C1231.42,1892.679,1231.418,1892.697,1231.417,1892.714z M1231.437,1892.499c-0.334-0.596-0.831-1.284-0.671-1.603
			c0.681-1.363,1.724-0.752,2.663-0.187c0.003,0.009,0.005,0.017,0.008,0.026
			C1231.659,1890.045,1231.548,1891.272,1231.437,1892.499z M1233.414,1890.663c-0.37-0.694-2.2-0.731-0.868-2.186
			c1.389-1.518,1.358,0.598,2.038,0.897C1233.234,1888.854,1232.976,1889.415,1233.414,1890.663z M1234.615,1889.384
			c-0.27-0.598-0.54-1.196-0.809-1.795c0.188,0.143,0.478,0.247,0.545,0.439c0.15,0.43,0.189,0.903,0.273,1.359
			C1234.62,1889.386,1234.618,1889.385,1234.615,1889.384z"/>
		<path style="fill:#6e43c4;" d="M1243.205,1473.207c-28.879-15.762-60.232-24.416-90.827-35.24
			c-38.591-13.652-76.337-29.258-111.374-51.638c-29.737-18.995-51.021-45.995-68.198-77.36
			c-6.137-11.207-12.845-22.149-20.15-32.534c-14.324-20.363-33.668-27.092-56.887-21.399c-31.021,7.607-57.53,25.101-83.304,43.793
			c-56.822,41.206-109.062,88.793-163.708,133.037c-66.921,54.183-135.419,105.734-213.124,141.6
			c-47.569,21.957-96.563,37.672-149.299,36.368c-112.263-2.777-209.051-104.383-212.982-223.344
			c-1.602-48.476,9.059-94.891,19.364-141.433c10.932-49.378,23.289-98.444,28.584-149.035
			c13.252-126.59-26.16-230.214-120.358-309.884c-0.3-0.254-0.631-0.466-0.944-0.701v34.637
			c54.842,65.429,93.454,138.58,96.045,228.885c1.355,47.233-8.676,92.57-19.874,137.752
			c-11.731,47.332-26.325,93.903-34.28,142.242c-16.414,99.746,16.533,180.727,86.262,246.013
			c69.5,65.072,150.479,78.321,238.412,53.458c71.739-20.285,136.499-56.765,199.499-97.275
			c58.581-37.668,113.71-80.938,172.019-119.037c21.357-13.954,43.404-26.492,67.083-35.642
			c34.999-13.525,67.982-10.438,98.191,13.467c46.464,36.769,96.708,66.19,150.456,89.138c18.832,8.041,37.307,17.038,55.827,25.876
			c11.939,5.697,23.31,12.571,34.228,20.254c37.497,26.387,51.986,63.179,43.861,109.936c-8.007,46.073-27.645,87.19-49.991,126.829
			c-58.539,103.84-130.498,196.76-212.531,280.237c-107.528,109.42-207.148,226.273-302.491,347.463
			c-1.988,2.527-3.319,5.99-6.837,6.889c0.143-3.85,3.156-5.909,4.987-8.63c82.112-121.986,176.242-233.005,275.15-339.739
			c58.537-63.169,111.93-130.794,153.095-208.358c18.601-35.049,32.152-72.08,35.613-112.55
			c6.617-77.39-23.959-136.063-81.837-180.504c-40.353-30.985-83.357-57.491-126.795-83.288
			c-45.91-27.264-92.36-28.254-140.464-7.036c-45.963,20.273-87.877,48.309-130.785,74.47
			c-67.107,40.914-134.864,80.353-208.747,106.302c-49.484,17.38-99.84,27.039-151.994,17.63
			c-67.76-12.225-121.217-50.36-164.012-105.723c-62.388-80.709-82.276-172.791-62.566-274.87
			c10.771-55.78,22.195-111.43,22.992-168.834c0.757-54.48-11.968-105.116-35.774-152.949c-1.509-3.031-2.898-6.256-4.742-9.089
			v77.701c1.327,3.459,2.29,7.113,3.344,10.673c11.723,39.614,12.232,80.117,7.631,120.887C8.451,1175.013,5.419,1197.3,0,1219.074
			v253.922c18.599,48.848,45.379,92.087,80.812,129.465c0.804,0.848,2.725,1.615,1.694,3.247c1.735-0.943,2.257,0.83,2.916,2.296
			c20.391,18.619,41.255,36.509,64.694,50.826c66.707,40.744,137.679,46.846,211.596,29.849
			c66.663-15.329,129.554-42.449,192.62-69.065c33.855-14.288,67.435-29.402,102.811-39.269
			c55.851-15.578,108.177-7.158,156.928,25.656c39.652,26.69,75.372,58.174,100.088,101.113
			c36.149,62.801,34.678,127.618,5.973,193.032c-21.192,48.295-52.305,89.713-81.136,132.806
			c-65.605,98.056-139.738,189.177-206.216,286.507c-18.483,27.061-37.497,53.714-56.286,80.54h35.921
			c0.012-0.023,0.022-0.048,0.035-0.071c0.398-0.712,0.934-1.336,1.541-2.183c0.352,0.901,0.759,1.472,0.63,1.699
			c-0.101,0.176-0.208,0.366-0.323,0.555h49.606c69.804-86.06,139.039-172.709,217.156-250.642
			c66.553-66.396,132.832-133.003,192.578-206.521c67.736-83.349,131.961-169.397,182.757-265.804
			c15.238-28.921,28.927-58.639,36.083-91.169C1304.043,1533.29,1288.566,1497.964,1243.205,1473.207z"/>
		<path style="fill:#6e43c4;" d="M1700,1064.71c-41.763-11.909-84.061-21.792-125.092-36.468
			c-27.44-9.815-53.18-22.985-72.421-47.036c-26.288-32.859-31.936-72.027-28.81-113.091c6.301-82.747,34.51-159.22,61.798-235.864
			c30.132-84.631,64.335-167.607,91.796-253.322c13.701-42.767,25.29-86.087,28.648-131.402c1.58-21.326,0.826-42.507-4.589-63.228
			c-12.033-46.043-45.239-66.803-91.208-57.034c-40.923,8.697-76.448,30.16-110.908,53.768
			c-61.948,42.439-117.353,93.806-173.454,144.171c-107.55,96.555-212.953,195.79-322.152,290.283
			c-44.023,38.094-88.81,75.156-137.85,105.931c-19.693,12.358-39.948,23.571-62.262,29.762
			c-38.298,10.628-60.933-3.922-69.602-44.757c-4.982-23.467-5.997-47.417-6.388-71.328
			c-2.241-137.074-2.443-274.043,15.388-410.319c4.4-33.628,5.718-67.629,1.39-101.59c-5.324-41.779-23.349-75.426-56.532-99.141
			C625.986,15.638,613.814,7.864,601.698,0H314.563c0.073,0.063,0.15,0.125,0.215,0.192C360.934,48.13,405.47,97.723,448.569,148.73
			c15.043,17.804,25.217,39.312,30.403,62.494c19.542,87.346,47.42,172.394,64.762,260.268
			c19.627,99.444,30.864,199.906,22.884,301.798c-3.087,39.418-7.303,78.735-10.637,118.133
			c-1.297,15.322-0.958,30.724,2.403,45.822c5.373,24.137,19.096,34.711,42.488,32.649c16.361-1.442,31.425-7.687,46.008-15.18
			c48.453-24.896,91.111-59.068,132.885-94.481c96.931-82.17,185.817-173.804,275.66-264.304
			c98.523-99.243,195.201-200.613,299.352-293.392c46.52-41.441,94.219-81.211,149.163-109.816
			c16.769-8.73,34.119-15.772,52.683-19.199c40.829-7.536,68.625,13.555,74.845,57.131c5.5,38.531-1.42,75.853-10.71,112.714
			c-19.704,78.186-49.675,152.521-77.036,227.83c-26.762,73.662-55.33,146.657-74.794,223.061
			c-9.513,37.344-17.277,75.009-16.546,114.063c1.258,67.175,28.549,108.576,88.145,132.406
			c42.504,16.996,87.189,25.955,130.793,38.906c9.528,2.83,19.111,5.45,28.678,8.132V1064.71z"/>
		<path style="fill:#6e43c4;" d="M1535.044,1124.181c-29.367-6.768-58.545-14.214-86.028-27.749
			c-45.134-22.228-67.083-60.156-68.092-112.24c-0.989-51.099,10.662-100.024,24.012-148.51
			c23.697-86.065,55.647-169.166,81.868-254.331c15.793-51.294,31.978-102.489,38.563-156.332
			c1.689-13.809,2.365-27.733,0.166-41.495c-4.702-29.421-20.813-40.924-48.362-34.643c-27.525,6.276-51.031,21.664-73.824,38.172
			c-58.631,42.463-110.689,93.301-162.027,144.915c-117.44,118.073-229.625,241.873-347.61,359.351
			c-105.987,105.532-212.358,210.65-326.177,306.82c-34.428,29.089-70.254,56.146-110.428,75.946
			c-15.722,7.749-31.963,13.718-49.362,15.706c-29.748,3.398-50.755-10.635-60.554-40.737c-6.287-19.311-7.117-39.345-6.621-59.485
			c1.19-48.258,9.116-95.662,16.388-143.149c10.166-66.385,23.145-132.287,26.438-199.775
			c5.098-104.486-17.799-200.214-75.75-285.758c-64.498-95.208-133.68-186.036-218.062-262.671
			C61.487,272.7,30.557,251.293,0,229.358v93.971c125.151,80.537,216.774,194.234,287.147,328.645
			c39.152,74.779,49.938,155.572,43.153,239.906c-5.616,69.811-19.516,138.303-28.48,207.573
			c-6.93,53.551-13.547,107.15-9.324,161.429c1.357,17.441,4.248,34.517,11.387,50.518c14.654,32.848,43.629,48.157,80.349,42.389
			c38.975-6.122,72.598-25.648,104.947-47.894c59.805-41.128,112.778-91.355,165.693-141.57
			c179.788-170.616,353.1-348.447,524.428-528.513c56.958-59.863,115.141-118.472,180.235-168.645
			c19.162-14.77,39.085-28.27,61.377-37.314c2.077-0.842,4.207-1.547,6.336-2.234c29.763-9.611,45.893,1.241,49.26,33.797
			c3.152,30.473-3.279,59.956-9.832,89.25c-17.551,78.456-44.083,153.932-68.459,230.124
			c-18.76,58.636-37.126,117.439-46.551,178.789c-5.22,33.975-8.167,68.118,3.179,101.508c13.052,38.41,42.215,58.021,76.169,71.331
			c39.889,15.636,81.926,21.892,123.382,30.59c48.175,10.108,95.606,22.527,139.085,47.915c2.14,1.25,4.328,2.409,6.519,3.563
			v-42.227C1647.023,1148.571,1590.865,1137.046,1535.044,1124.181z"/>
		<path style="fill:#6e43c4;" d="M1557.573,1090.605c-23.812-6.055-47.449-12.668-69.985-23.147
			c-48.296-22.457-71.799-62.303-73.075-117.415c-1.232-53.238,11.34-104.06,25.683-154.395
			c25.341-88.925,58.586-174.936,86.851-262.789c16.789-52.185,33.859-104.299,41.81-159.084c2.59-17.847,3.716-35.76,1.022-53.786
			c-4.769-31.906-24.428-47.203-54.57-42.096c-26.959,4.568-50.634,17.64-73.395,32.68c-56.796,37.53-106.347,84.704-155.269,132.59
			c-98.06,95.985-191.053,197.492-286.433,296.398c-113.537,117.732-228.81,233.428-352.194,339.657
			c-39.357,33.885-79.74,66.35-124.857,91.454c-17.812,9.911-36.197,18.226-56.231,21.747c-32.633,5.736-55.056-9.631-62.753-43.832
			c-6.65-29.544-3.857-59.354-0.422-88.985c6.869-59.252,20.904-117.1,31.494-175.62c30.45-168.268,1.068-325.126-78.5-472.589
			C286.612,281.412,197.788,166.53,100.713,58.482C80.235,35.69,56.786,16.693,31.712,0H0v98.017
			c6.717,4.955,12.576,11.073,18.192,17.25c85.965,94.546,177.509,183.682,251.41,289.971
			c45.131,64.91,85.575,132.723,109.454,209.959c28.725,92.908,31.165,187.758,16.286,283.64
			c-9.189,59.217-26.217,116.478-38.421,174.935c-8.624,41.312-15.431,82.899-10.879,125.497c0.873,8.174,2.342,16.384,4.508,24.277
			c9.493,34.593,32.64,49.701,66.135,43.527c25.359-4.674,48.198-16.257,70.266-29.611c54.2-32.799,102.556-74.141,149.886-116.823
			c140.781-126.956,274.646-261.819,406.066-399.495c89.955-94.237,178.126-190.464,273.084-279.197
			c39.931-37.314,80.686-73.578,127.617-100.984c14.433-8.428,29.465-15.378,45.749-18.777c30.164-6.297,48.092,7.28,52.195,39.442
			c3.697,28.979-1.552,57.139-7.797,85.001c-18.429,82.223-46.827,161.071-73.471,240.495
			c-21.989,65.546-44.63,130.874-58.501,199.081c-6.411,31.525-10.929,63.352-8.704,95.742
			c3.866,56.269,33.493,91.202,82.011,110.366c31.948,12.619,65.236,19.68,98.421,27.217c42.845,9.73,85.268,21.073,126.492,36.982
			v-26.508C1653.487,1112.989,1605.296,1102.741,1557.573,1090.605z"/>
		<path style="fill:#6e43c4;" d="M1700,1097.119c-15.193-2.357-29.667-7.903-44.486-11.873
			c-40.682-10.898-81.935-19.687-121.352-35.43c-40.719-16.263-71.382-43.152-82.94-89.711c-7.14-28.764-6.433-57.875-2.488-86.993
			c10.882-80.305,38.298-155.424,64.804-230.806c29.417-83.66,62.09-166.06,86.948-251.482
			c11.092-38.116,20.312-76.693,20.828-116.943c0.159-12.437-1.091-24.76-4.308-36.791c-8.568-32.044-31.129-48.086-62.325-44.177
			c-34.061,4.269-63.674,20.636-92.274,39.166c-59.948,38.84-112.556,87.733-164.777,137.037
			c-106.331,100.391-207.898,206.185-311.647,309.504c-90.352,89.977-180.757,179.902-280.07,258.969
			c-31.417,25.012-63.718,48.673-99.432,66.526c-8.83,4.414-17.897,8.158-27.346,10.845c-35.009,9.956-60.659-6.668-67.891-44.664
			c-5.487-28.828-2.341-57.765,1.31-86.429c10.21-80.161,15.109-160.465,7.009-241.156c-7.775-77.456-24.809-152.976-43.97-227.978
			c-13.62-53.313-28.301-106.295-48.586-157.309c-11.747-29.543-26.528-57.245-45.332-82.404
			c-16.822-22.506-32.314-46.004-44.949-71.367c-18.739-37.617-45.138-67.805-76.904-93.221C255.704,7.14,251.778,3.581,247.867,0
			h-99.973c0.13,0.147,0.252,0.295,0.352,0.448c23.218,35.48,51.793,66.341,77.038,100.069
			c31.538,42.135,55.933,89.58,86.595,132.389c24.943,34.824,49.832,69.686,68.615,108.85
			c63.626,132.661,101.662,271.865,96.014,422.252c-2.557,68.084-13.481,134.926-25.91,201.582
			c-4.376,23.468-7.454,47.146-7.518,71.186c-0.065,24.488,6.416,47.27,15.978,69.117c7.592,17.346,21.163,24.716,39.623,22.715
			c19.223-2.084,36.531-10.25,53.251-19.818c51.507-29.475,96.961-68.057,141.92-107.249
			c114.372-99.699,220.667-208.717,326.393-318.406c105.502-109.456,208.815-221.356,319.871-324.654
			c43.57-40.526,88.074-79.864,139.285-109.485c19.115-11.057,38.947-20.32,60.755-23.861c34.265-5.564,56.597,12.35,61.321,49.037
			c4.665,36.228-2.243,71.195-10.78,105.777c-19.533,79.128-48.621,154.816-75.338,231.345
			c-24.884,71.277-51.254,142.026-68.402,216.046c-7.108,30.681-12.599,61.63-12.92,93.398
			c-0.735,72.925,28.206,116.935,93.119,141.144c41.009,15.294,83.708,23.917,125.641,35.566
			c15.752,4.376,31.473,8.881,47.204,13.341V1097.119z"/>
		<path style="fill:#6e43c4;" d="M1700,1022.189c-37.232-10.476-74.566-20.62-109.743-37.83
			c-52.545-25.707-77.706-70.12-78.742-130.591c-0.981-57.221,13.665-111.359,30.627-164.817
			c28.813-90.807,65.156-178.585,96.892-268.22c19.348-54.647,37.564-109.677,45.148-167.879c4.022-30.865,4.97-61.735-2.041-92.315
			c-15.388-67.118-58.925-94.767-122.176-77.454c-42.915,11.747-80.657,35.039-117.307,60.459
			c-61.374,42.569-117.348,92.797-175.557,139.852c-72.193,58.358-145.153,115.519-224.987,161.909
			c-28.601,16.62-57.855,31.838-90.005,39.37c-7.033,1.648-14.278,2.631-21.472,3.086c-26.444,1.671-45.548-10.644-57.871-35.189
			c-13.109-26.11-17.3-54.686-20.051-83.572c-5.137-53.945,4.067-106.497,14.088-158.965c5.027-26.32,10.101-52.609,13.191-79.329
			C886.093,77.962,869.931,34.883,833.878,0h-77.977c16.891,15.779,27.114,35.838,33.408,58.585
			c11.375,41.113,13.286,82.065,2.467,123.981c-13.739,53.227-30.268,105.689-40.303,159.961
			c-14.514,78.494-17.083,157.077-0.99,235.714c2.604,12.724,6.324,25.113,12.015,36.725c11.723,23.923,29.484,34.213,54.742,31.464
			c22.58-2.458,43.062-11.87,62.944-22.646c54.511-29.546,103.699-67.778,152.687-106.265
			c109.449-85.986,213.625-179.034,320.233-268.826c49.742-41.895,100.707-82.003,159.053-109.99
			c17.286-8.292,35.112-14.778,53.941-18.056c49.176-8.562,83.487,15.941,93.847,67.621c8.122,40.517,2.903,80.473-5.822,120.058
			c-16.318,74.034-44.059,143.939-69.823,214.539c-28.672,78.571-59.551,156.309-80.453,237.817
			c-9.8,38.217-17.177,76.913-15.796,116.836c2.012,58.134,26.889,100.445,77.48,124.773c37.725,18.142,78.17,26.89,117.803,38.444
			c5.53,1.612,11.101,3.064,16.665,4.544V1022.189z"/>
		<path style="fill:#6e43c4;" d="M814.641,1667.115c-57.495-59.357-124.872-77.302-202.186-53.112
			c-52.345,16.378-103.047,37.862-155.073,55.196c-55.665,18.547-111.823,34.103-170.898,33.126
			c-78.057-1.29-143.432-33.895-199.412-89.992c-1.005-1.007-3.451-1.701-2.194-3.92c-1.874,1.153-2.411-0.689-3.087-2.218
			c0,0,0.181,0.175,0.181,0.175c-27.295-26.228-49.86-56.63-69.969-89.19c-4.092-6.627-8.127-13.298-12.002-20.068v46.098
			c55.762,98.037,134.565,164.717,239.424,194.769c49.925,14.308,100.497,9.838,150.819,0.294
			c48.791-9.253,96.546-23.777,145.54-31.958c46.03-7.686,91.064-6.653,133.691,16.72c65.673,36.01,96.786,102.05,85.34,181.527
			c-3.417,23.729-9.495,46.737-16.572,69.482c-31.354,100.773-75.181,195.581-122.555,288.724
			c-23.576,46.352-47.148,92.691-73.698,137.231h31.626c29.86-50.101,59.903-100.081,89.361-150.446
			c54.152-92.585,107.491-185.709,156.901-281.255c24.166-46.73,41.976-95.952,43.645-150.181
			C865.271,1761.261,854.779,1708.553,814.641,1667.115z"/>
		<path style="fill:#6e43c4;" d="M304.855,2138.185c-3.172-50.991-20.729-94.502-53.762-132.043
			c-52.15-59.266-108.77-113.474-165.076-168.091c-16.849-16.344-33.19-33.274-49.999-49.665c-4.382-4.274-9.012-8.715-15.475-9.448
			c0.197,6.83,5.675,10.176,9.019,14.786c42.962,59.228,88.247,116.513,133.883,173.366
			c45.173,56.277,66.081,120.548,68.265,193.127c0.454,15.075,0.539,30.097-1.002,45.097c-0.16,1.555,0.3,3.991-2.087,3.906
			c-0.655-0.023-1.616-2.166-1.802-3.44c-9.755-66.615-46.668-118.777-82.662-170.853
			c-46.578-67.391-95.088-133.284-142.961-199.664c-0.438-0.608-0.826-1.274-1.195-1.964v80.777
			c41.725,66.253,83.952,132.176,117.702,203.627c16.86,35.694,33.12,71.648,36.538,112.21c2.714,32.213-2.034,63.512-11.43,94.118
			c-0.662,2.156-0.577,5.546-2.985,5.727c-1.111,0.083-2.663-3.342-3.677-5.366c-26.936-53.767-48.231-110.176-69.089-166.763
			C46.805,2102.68,25.772,2048.119,0,1995.776v94.613c25.749,67.467,45.57,137.167,68.461,205.713
			c10.216,30.592,22.889,60.104,36.096,89.349c2.249,4.98,4.663,9.865,7.382,14.549h117.402c2.786-3.35,5.553-6.717,8.246-10.149
			c37.418-47.68,54.919-104.037,63.295-164.295C304.909,2196.584,306.684,2167.584,304.855,2138.185z"/>
		<path style="fill:#6e43c4;" d="M1700,79.304c-8.691-19.21-19.893-36.514-36.208-49.786
			c-32.824-26.703-69.901-28.271-108.205-19.089c-52.338,12.547-98.72,39.562-143.568,69.514
			c-39.799,26.581-78.587,54.86-118.294,81.601c-38.408,25.867-78.163,49.029-123.175,59.744
			c-21.667,5.158-43.507,6.544-65.553,2.862c-27.916-4.662-48.996-19.865-63.425-45.605c-10.353-18.469-16.954-38.496-21.774-59.204
			c-9.208-39.558-13.605-80.27-24.858-119.343h-87.143c15.812,21.201,23.394,46.313,28.82,72.367
			c6.333,30.411,6.142,61.613,9.471,92.392c4.091,37.83,6.911,75.991,19.898,111.972c15.84,43.885,45.007,64.242,89.023,62.475
			c29.069-1.167,56.427-10.178,82.966-22.169c54.672-24.701,103.529-59.761,151.581-96.194
			c52.526-39.825,102.895-82.901,158.11-118.669c38.823-25.149,78.746-47.713,124.296-56.464
			c46.335-8.901,85.653,8.948,107.929,49.768c11.455,20.992,17.377,43.814,20.107,67.653V79.304z"/>
		<path style="fill:#6e43c4;" d="M558.459,1982.929c-9.352-75.481-52.167-120.607-123.278-130.49
			c-24.888-3.459-49.935-4.448-74.969-5.436c-60.819-2.401-119.158-15.365-174.01-44.224
			C111.793,1763.63,51.522,1706.643,0,1638.442v25.813c52.795,66.063,113.85,121.429,186.143,162.442
			c39.801,22.579,82.251,37.326,125.825,48.958c21.598,5.766,42.981,12.251,63.849,20.673
			c55.764,22.506,85.321,65.691,90.544,128.13c6.414,76.681-6.034,150.505-30.545,222.44
			c-18.031,52.918-39.668,104.075-65.711,153.102h69.51c46.629-87.744,82.791-180.033,106.206-277.784
			C556.765,2076.53,564.333,2030.337,558.459,1982.929z"/>
		<path style="fill:#6e43c4;" d="M729.925,1873.276c-5.017-79.054-63.403-141.476-139.577-150.271
			c-39.634-4.576-78.31,2.648-117.01,9.817c-44.962,8.329-89.699,17.899-135.237,22.629c-95.999,9.971-178.721-22.141-251.448-87.17
			C53.281,1638.441,24.357,1604.398,0,1566v30.095c25.538,35.931,54.815,67.987,87.529,96.635
			c71.916,62.979,153.676,94.556,247.618,89.442c43.752-2.382,87.026-8.961,130.502-13.801c35.315-3.931,70.562-6.163,105.343,4.59
			c57.414,17.751,90.387,60.617,94.885,123.708c2.168,30.414-1.809,60.12-9.817,89.251
			c-14.617,53.174-36.677,103.241-57.729,153.704c-35.936,86.144-72.878,171.748-121.864,250.79
			c-2.03,3.276-4.368,6.379-6.549,9.586h38.488c9.375-15.613,18.847-31.167,27.495-47.219
			c62.841-116.642,121.628-235.525,172.165-358.773C723.727,1955.814,732.601,1915.432,729.925,1873.276z"/>
		<path style="fill:#6e43c4;" d="M407.562,2076.467c-6.667-58.722-34.324-103.646-83.314-132.227
			c-38.294-22.341-76.549-44.663-113.685-69.131C130.073,1822.076,60.013,1756.581,0,1678.952v44.53
			c66.352,82.917,140.079,157.732,220.561,225.121c25.898,21.685,48.954,45.896,68.977,74.104
			c30.802,43.392,43.845,91.913,46.313,145.21c3.397,73.353-15.249,141.376-41.983,207.7c-3.296,8.178-6.753,16.282-10.221,24.382
			h58.949c4.964-10.844,9.927-21.689,14.8-32.579c26.405-59.019,47.317-119.79,51.379-185.724
			C410.937,2146.605,411.528,2111.401,407.562,2076.467z"/>
		<path style="fill:#6e43c4;" d="M1076.692,2400c0.617-1.625,1.347-2.964,3.197-1.481c-0.216,0.563-0.448,1.086-0.73,1.481h41.434
			c13.009-11.992,26.015-23.987,39.034-35.966c100.226-92.223,192.027-193.474,282.403-296.246
			c86.026-97.825,171.973-195.728,257.97-293.581v-29.304c-0.939,0.974-1.509,2.545-2.337,3.457
			c-127.679,140.632-255.226,281.399-382.954,421.982c-16.972,18.68-34.836,36.45-52.287,54.641
			c-0.563,0.584-1.125,1.169-1.688,1.753c-0.816,1.394-1.863,3.811-3.389,1.849c-1.366-1.757,1.357-2.521,2.41-3.62
			c0.11-0.586,0.442-0.941,0.995-1.065c41.949-44.786,83.609-89.871,124.23-136.016
			c105.038-119.321,210.006-238.711,315.019-358.055v-9.835c-0.705,0.941-1.127,2.32-1.758,3.018
			c-131.556,145.727-266.138,288.315-399.371,432.299c-80.943,87.474-167.025,168.971-257.923,244.689H1076.692z M1130.065,2352.265
			c0.849-0.949,1.697-1.898,2.545-2.847c3.027-2.623,6.055-5.246,9.083-7.869c0.929-0.971,1.859-1.942,2.786-2.915
			c4.405-4.152,8.812-8.302,13.219-12.453c4.691-4.331,9.382-8.662,14.074-12.993c0.57-0.575,1.14-1.15,1.71-1.725
			c4.868-6.136,10.612-11.251,16.634-16.043c0.565-0.581,1.129-1.161,1.694-1.742c6.593-7.837,13.988-14.755,21.712-21.296
			c0.557-0.588,1.114-1.176,1.671-1.764c11.678-11.846,23.356-23.692,35.034-35.537c0.752-1.401,1.805-3.654,3.271-2.114
			c1.641,1.725-1.045,2.423-1.937,3.511c-11.806,11.923-23.612,23.846-35.417,35.769c-0.395,0.406-0.79,0.812-1.186,1.218
			c-7.393,7.248-14.785,14.496-22.178,21.743c-0.443,0.441-0.885,0.883-1.328,1.324c-5.676,5.456-11.351,10.912-17.027,16.367
			c-0.469,0.458-0.939,0.917-1.408,1.375c-4.827,4.414-9.654,8.828-14.48,13.242c-3.819,4.91-8.198,9.142-13.381,12.397
			c-0.856,0.937-1.712,1.874-2.568,2.811c-2.67,3.088-5.354,6.156-9.06,7.91c-0.861,0.958-1.722,1.915-2.581,2.873
			c-3.57,3.096-7.142,6.19-10.713,9.285C1121.054,2356.786,1126.429,2355.41,1130.065,2352.265z M1106.66,2373.53
			c0.933-0.97,1.866-1.939,2.797-2.911c3.395-2.604,5.221-7.757,10.42-7.433c-2.672,3.642-5.842,6.651-9.827,8.628
			c-0.877,0.957-1.754,1.914-2.631,2.871c-2.929,2.763-5.859,5.526-8.789,8.289
			C1097.867,2376.662,1103.693,2376.417,1106.66,2373.53z M1098.385,2383.167c-2.718,2.055-5.436,4.111-8.154,6.166
			C1091.555,2385.236,1093.401,2381.902,1098.385,2383.167z M1089.926,2389.662c-0.622,1.649-1.347,3.039-3.221,1.511
			C1087.326,2389.531,1088.048,2388.141,1089.926,2389.662z M1086.533,2391.388c0.014,4.496-3.795,5.132-6.468,6.915
			C1080.083,2393.839,1083.851,2393.162,1086.533,2391.388z"/>
		<path style="fill:#6e43c4;" d="M904.1,2400c1.115-1.009,2.223-2.023,3.295-3.073c43.794-42.902,90.389-82.367,135.477-123.685
			c63.673-58.349,125.608-118.694,184.655-182.243c127.07-136.758,258.132-269.202,386.97-404.046
			c29.823-31.213,58.448-63.656,85.503-97.616v-68.951c-0.126,0.269-0.252,0.525-0.386,0.732
			c-50.132,77.277-110.698,145.015-172.887,211.134c-117.052,124.45-232.976,250.074-349.243,375.343
			c-79.042,85.162-164.73,162.531-250.766,239.501c-18.858,16.871-36.711,35.007-54.745,52.906H904.1z"/>
		<path style="fill:#6e43c4;" d="M1086.283,0c1.059,2.293,2.107,4.592,3.11,6.913c13.074,30.262,29.101,58.11,52.641,80.986
			c22.649,22.011,48.33,30.148,78.362,25.178c32.258-5.339,60.75-20.561,88.643-37.355C1349.178,51.554,1387.02,23.316,1427.647,0
			H1086.283z"/>
		<path style="fill:#6e43c4;" d="M1019.278,2400c21.082-18.615,42.192-37.196,63.123-55.999
			c93.401-83.907,179.683-175.695,265.069-268.523c95.275-103.579,191.218-206.466,286.721-309.81
			c21.825-23.618,43.015-47.895,64.58-71.785c0.458-0.507,0.837-1.13,1.229-1.746v-38.276
			c-89.287,103.563-184.585,200.94-276.488,301.813c-85.677,94.039-170.026,189.484-260.348,278.663
			c-58.677,57.934-120.052,112.486-182.552,165.662H1019.278z"/>
		<path style="fill:#6e43c4;" d="M1180.684,2400c4.154-3.664,8.421-7.193,12.488-10.946
			c121.37-112.024,231.518-235.833,338.776-362.65c56.291-66.556,112.052-133.615,168.052-200.448v-34.453
			c-1.335,0.875-1.859,3.362-2.777,4.4c-71.164,80.525-142.033,161.344-213.279,241.786
			c-104.624,118.127-210.497,234.924-327.339,339.834c-8.393,7.536-16.872,14.965-25.283,22.477H1180.684z"/>
		<path style="fill:#6e43c4;" d="M1247.034,2400c17.096-16.338,34.245-32.616,50.969-49.37
			c100.269-100.446,192.46-208.897,281.276-320.633c39.441-49.619,78.179-99.867,117.205-149.856
			c1.22-1.563,2.377-3.183,3.516-4.818v-36.652c-1.244,1.041-1.875,3.045-2.843,4.213
			c-69.68,84.067-138.762,168.697-208.973,252.262c-89.936,107.042-183.777,210.046-285.341,304.855H1247.034z"/>
		<path style="fill:#6e43c4;" d="M964.127,2400c45.184-39.667,91.304-78.132,135.403-119.205
			c86.926-80.962,167.939-168.336,249.02-255.691c99.825-107.55,200.341-214.378,300.357-321.73
			c17.483-18.765,34.137-38.398,51.093-57.715v-21.633c-0.933,0.95-1.457,2.608-2.242,3.5c-22.028,25.03-43.388,50.745-65.93,75.239
			c-106.753,116-216.955,228.343-324.62,343.38c-68.261,72.934-138.106,144.087-211.162,211.673
			c-53.068,49.094-109.263,94.122-163.112,142.182H964.127z"/>
		<path style="fill:#6e43c4;" d="M1476.826,2400c41.023-41.946,81.602-84.359,120.26-128.803
			c34.953-40.185,68.317-81.753,98.669-125.986c1.332-1.941,2.455-4.255,4.246-5.772v-71.878c-1.087,1.166-1.454,3.254-2.284,4.496
			c-13.348,19.974-26.253,40.285-39.754,60.14c-66.742,98.147-145.794,184.48-227.984,267.803H1476.826z"/>
		<path style="fill:#6e43c4;" d="M1379.417,2400c70.757-74.409,138.695-151.529,200.383-234.658
			c42.622-57.436,80.599-118.398,120.2-178.127v-35.269c-1.535,1.141-1.969,3.817-2.968,5.216
			c-45.33,63.491-87.503,129.505-135.426,190.924c-69.223,88.716-143.16,172.76-222.024,251.914H1379.417z"/>
		<path style="fill:#6e43c4;" d="M1700,992.023c-42.008-12.305-83.843-25.234-117.476-56.895
			c-25.744-24.235-36.924-56.07-39.723-91.655c-4.492-57.098,9.43-111.089,26.004-164.363
			c26.559-85.367,61.083-167.509,91.842-251.178c14.483-39.396,29.135-78.748,39.353-119.702v-81.304
			c-0.872,7.297-1.465,14.64-2.537,21.903c-9.085,61.551-29.257,119.593-50.27,177.346c-32.1,88.225-68.391,174.741-96.542,264.571
			c-15.636,49.896-28.634,100.484-27.897,153.737c0.63,45.554,13.907,85.198,49.228,113.948
			c19.226,15.649,41.259,25.542,64.022,33.589c21.09,7.456,42.071,15.418,63.996,19.839V992.023z"/>
		<path style="fill:#6e43c4;" d="M1319.504,2400c1.601-1.458,3.198-2.914,4.718-4.441
			c132.598-133.079,252.156-278.241,359.204-435.024c5.386-7.888,11.003-15.599,16.574-23.345v-31.202
			c-0.908,0.994-1.365,2.679-2.07,3.615c-17.183,22.827-34.695,45.405-51.141,68.821
			c-107.133,152.534-226.093,293.667-358.852,421.576H1319.504z"/>
		<path style="fill:#6e43c4;" d="M1570.278,2400c41.218-38.238,81.971-77.015,121.277-117.481c2.521-2.595,4.888-5.851,8.445-6.544
			v-76.536c-2.031,0.743-3.095,3.41-4.426,5.058c-8.85,10.961-17.232,22.349-26.144,33.251
			c-46.929,57.408-98.384,110.092-150.345,162.251H1570.278z"/>
		<path style="fill:#6e43c4;" d="M1700,961.509c-21.176-8.557-42.131-17.605-61.421-30.495
			c-30.505-20.384-49.705-49.08-57.344-86.533c-9.311-45.652-3.221-90.45,7.868-134.529
			c27.367-108.775,72.853-210.458,110.897-315.059v-35.748c-3.725,10.383-7.204,20.866-10.908,31.258
			c-29.658,83.202-63.739,164.568-91.945,248.369c-17.863,53.073-33.813,106.725-35.628,163.69
			c-1.32,41.444,5.149,80.949,32.587,112.849c28.541,33.183,66.722,48.111,105.894,60.672V961.509z"/>
		<path style="fill:#6e43c4;" d="M0,2153.869v121.268c10.68,41.344,18.266,83.519,28.948,124.862h46.234
			C46.186,2319.313,24.786,2236.007,0,2153.869z"/>
		<path style="fill:#6e43c4;" d="M1700,878.344c-37.77-33.918-49.273-79.204-46.637-129.966
			c3.357-64.647,24.749-124.211,46.637-183.561v-38.263c-0.466,1.196-0.448,2.797-0.8,3.744
			c-11.825,31.803-23.94,63.504-34.922,95.638c-17.008,49.766-31.417,100.21-29.627,154.118
			c1.236,37.23,11.396,70.856,35.907,98.345c8.62,9.667,17.62,19.219,29.442,24.588V878.344z"/>
		<path style="fill:#6e43c4;" d="M1700,928.964c-1.986-1.172-3.976-2.337-6.002-3.425c-41.285-22.176-71.008-54.342-80.221-104.245
			c-6.695-36.262-3.667-72.243,3.809-107.848c17.892-85.21,51.224-164.603,82.414-244.789V440.05
			c-0.166,0.991-0.146,2.099-0.393,2.737c-22.493,57.989-45.601,115.727-65.719,174.712
			c-17.114,50.179-32.644,100.879-35.708,154.668c-4.853,85.209,26.467,137.328,101.256,169.371c0.18,0.077,0.369,0.197,0.563,0.332
			V928.964z"/>
		<path style="fill:#6e43c4;" d="M1681.622,2400c5.691-5.238,11.644-10.118,18.378-13.925v-50.065
			c-3.26,0.459-5.701,3.13-8.164,5.358c-21.529,19.468-42.996,39.013-64.403,58.633H1681.622z"/>
		<path style="fill:#6e43c4;" d="M1700,671.286c-6.855,22.927-11.926,46.303-14.642,70.187
			c-3.628,31.905-0.947,62.925,12.957,92.063c0.623,1.305,0.652,3.625,1.684,4.847V671.286z"/>
		<path style="fill:#6e43c4;" d="M1700,0h-14.702c2.425,3.264,5.401,6.085,7.892,9.253c2.567,3.265,3.68,7.946,6.81,10.723V0z"/>
		<path style="fill:#6e43c4;" d="M1700,2015.447c-2.548,3.498-3.636,7.97-5.35,11.925c-1.825,4.211-6.422,9.853-2.436,13.264
			c2.154,1.843,5.077-2.381,7.785-5.434V2015.447z"/>
	</g>
</g>
</svg>
